/* XPM */
static char *bba726d72fc8417ad8e019cb607c9e70MA4r3akghYOvOHXl[] = {
/* columns rows colors chars-per-pixel */
"64 64 241 2 ",
"   c #181D26",
".  c #181C26",
"X  c #181C25",
"o  c #1B232A",
"O  c #1F2A2E",
"+  c #1D272C",
"@  c #1A2128",
"#  c #1E2A2E",
"$  c #171C25",
"%  c #233233",
"&  c #55946E",
"*  c #68B984",
"=  c #67B884",
"-  c #66B682",
";  c #45755B",
":  c #1B2329",
">  c #212E30",
",  c #55956E",
"<  c #67B984",
"1  c #54936D",
"2  c #243434",
"3  c #171A24",
"4  c #3C6350",
"5  c #7CE09C",
"6  c #81EAA2",
"7  c #80EAA2",
"8  c #82ECA3",
"9  c #68BA85",
"0  c #212F31",
"q  c #171B25",
"w  c #345347",
"e  c #7BDE9A",
"r  c #7EE49E",
"t  c #3B6350",
"y  c #161A24",
"u  c #3E6753",
"i  c #7FE8A0",
"p  c #7FE7A0",
"a  c #7CE19C",
"s  c #7DE39E",
"d  c #3E6853",
"f  c #3E6752",
"g  c #80E9A1",
"h  c #69BB85",
"j  c #223132",
"k  c #6EC58B",
"l  c #273A37",
"z  c #3C6450",
"x  c #3B624F",
"c  c #7BDF9B",
"v  c #81EBA2",
"b  c #6FC88D",
"n  c #375A4B",
"m  c #7ADE9A",
"M  c #7EE59F",
"N  c #223032",
"B  c #569770",
"V  c #6DC48B",
"C  c #6CC38A",
"Z  c #6DC38A",
"A  c #69BC86",
"S  c #345547",
"D  c #1E292D",
"F  c #55956F",
"G  c #6EC78C",
"H  c #4C8364",
"J  c #233333",
"K  c #223232",
"L  c #2E4840",
"P  c #56976F",
"I  c #4D8665",
"U  c #4A7F61",
"Y  c #4A8062",
"T  c #497E61",
"R  c #2E473F",
"E  c #181E26",
"W  c #253736",
"Q  c #4D8564",
"!  c #56966F",
"~  c #4B8163",
"^  c #4B8263",
"/  c #3F6954",
"(  c #528F6B",
")  c #65B581",
"_  c #161823",
"`  c #355548",
"'  c #70C98E",
"]  c #7DE29D",
"[  c #3C6250",
"{  c #191F27",
"}  c #508B68",
"|  c #6FC98E",
" . c #263937",
".. c #78DA98",
"X. c #7DE39D",
"o. c #599D73",
"O. c #3D6552",
"+. c #6EC68C",
"@. c #477A5E",
"#. c #508C69",
"$. c #345447",
"%. c #79DB99",
"&. c #77D796",
"*. c #497D60",
"=. c #569870",
"-. c #7FE6A0",
";. c #7FE69F",
":. c #487C5F",
">. c #80E8A1",
",. c #71CC90",
"<. c #4E8766",
"1. c #74D293",
"2. c #79DC99",
"3. c #54926C",
"4. c #4C8464",
"5. c #53906B",
"6. c #74D192",
"7. c #7BE09C",
"8. c #5FA97B",
"9. c #7EE69F",
"0. c #53916C",
"q. c #7CE19D",
"w. c #5A9F74",
"e. c #66B582",
"r. c #406D56",
"t. c #5CA276",
"y. c #202D30",
"u. c #2F4941",
"i. c #406C56",
"p. c #53926D",
"a. c #395E4D",
"s. c #385C4C",
"d. c #74D193",
"f. c #599C73",
"g. c #5EA578",
"h. c #6FC78D",
"j. c #2D463E",
"k. c #161923",
"l. c #75D494",
"z. c #7ADC99",
"x. c #7FE8A1",
"c. c #6FC68C",
"v. c #4F8A67",
"b. c #528E6A",
"n. c #4E8866",
"m. c #73D092",
"M. c #589A72",
"N. c #6BC189",
"B. c #579A71",
"V. c #579971",
"C. c #69BB86",
"Z. c #72CD90",
"A. c #68BB85",
"S. c #426F58",
"D. c #61AC7C",
"F. c #72CE91",
"G. c #36594A",
"H. c #406B55",
"J. c #2F4B42",
"K. c #61AD7D",
"L. c #355648",
"P. c #7BDE9B",
"I. c #80E9A2",
"U. c #81ECA3",
"Y. c #64B280",
"T. c #202C2F",
"R. c #487B5E",
"E. c #75D394",
"W. c #61AB7C",
"Q. c #1D262C",
"!. c #518D6A",
"~. c #66B683",
"^. c #60AA7B",
"/. c #60AB7B",
"(. c #5DA578",
"). c #53926C",
"_. c #335246",
"`. c #77D897",
"'. c #5FA87A",
"]. c #61AC7D",
"[. c #6DC58B",
"{. c #223031",
"}. c #5EA779",
"|. c #63B17F",
" X c #66B783",
".X c #212E31",
"XX c #1B2229",
"oX c #1A2229",
"OX c #192028",
"+X c #192027",
"@X c #81EBA3",
"#X c #7ADD9A",
"$X c #76D595",
"%X c #79DA98",
"&X c #7CE29D",
"*X c #60AB7C",
"=X c #304D43",
"-X c #4D8464",
";X c #64B380",
":X c #2C453E",
">X c #6ABD86",
",X c #46775C",
"<X c #63B07E",
"1X c #6BC088",
"2X c #4F8867",
"3X c #273937",
"4X c #75D595",
"5X c #416E57",
"6X c #161924",
"7X c #497C60",
"8X c #2A423C",
"9X c #2B423C",
"0X c #325145",
"qX c #46775D",
"wX c #3C6351",
"eX c #3C6451",
"rX c #293E3A",
"tX c #4A8162",
"yX c #497E60",
"uX c #67B783",
"iX c #64B17F",
"pX c #44745A",
"aX c #5DA477",
"sX c #283D3A",
"dX c #77D797",
"fX c #72CD91",
"gX c #7ADC9A",
"hX c #2A413C",
"jX c #70CA8E",
"kX c #65B481",
"lX c #253735",
"zX c #7DE49E",
"xX c #72CF91",
"cX c #76D696",
"vX c #3A614F",
"bX c #335346",
"nX c #46785D",
"mX c #181E27",
"MX c #47795D",
"NX c #1A2129",
"BX c white",
/* pixels */
"                                                                                                                                ",
"                                                                                                                                ",
"                                                                                                                                ",
"                                                                                                                                ",
"                                                                                                                                ",
"                                                                                                                                ",
"                                                                                                                                ",
"                . . . . . . . . . . . . . . . . . . . . .                             . . . . .                                 ",
"            X o O O O O O O O O O O O O O O O O O O O O +                           @ # O O O O @ .                             ",
"          $ % & * = = = = = = = = = = = = = = = = = = = - ; :                   $ > , * = = = < 1 2 $                           ",
"          3 4 5 6 7 7 7 7 7 7 7 7 7 7 7 7 7 7 7 7 7 7 7 8 9 0 X                 q w e 6 7 7 7 6 r t q                           ",
"          y u 5 i p p p p p p p p p p p p p p p p p p p 7 < 0 X                 q 4 a p p p p p s d $                           ",
"          y f 5 i p p p p p p p p p p p p p p p p p p p 7 < 0 X                 q 4 a p p p p p s d $                           ",
"          y f 5 i p p p p p p p p p p p p p p p p p p p g h j $                 q 4 a p p p p p s d $                           ",
"          y u 5 i p p p p p p p p p p p p p p p p p p p g k l q                 q z a p p p p p s u $                           ",
"          3 x c 7 g g g g g g g g g g g g g g g g g g g v b l q                 q n m 7 g g g g M u q                           ",
"          $ N B V C C C C C C C C C C C C C C C C C C C Z A S $ $ $ $ $ $ $     . D F V C C C C G H o $ $ $ $ $ $ .             ",
"            $ + J J J J J J J J J J J J J J J J J J J J K L P I U Y Y Y T R E     . + J J J J % W Q ! U Y ~ ^ ~ / D .           ",
"              . $ $ $ $ $ $ $ $ $ $ $ $ $ $ $ $ $ $ $ $ q E ( g g g g g 6 ) j $     . $ $ $ $ $ _ ` m 6 M ' k ] m [ $           ",
"                                                          { } p p p p p g |  .q                 3 w ..X.o.O.d +.i @..           ",
"                                                          { #.p p p p p g b  .q                 3 $.%.&.*.=.b -.;.:..           ",
"                                                          { #.p p p p p g b  .q                 3 $...>.,.<.#.1.p :..           ",
"                                                          { #.p p p p p g b  .q                 3 $.%.2.3.4.5.6.p :..           ",
"                                                          { } p i i i i g b  .q                 3 $...7.8.P ,.g 9.:..           ",
"                              $ q q q q q q q q q q q q 3 { 0.q.5 5 5 5 a w.# X                 3 $...p e.r.t.a -.:..           ",
"                            $ y.L u.u.u.u.u.u.u.u.u.u.u.L i.p.4 a.a.a.a.s.J .                   3 $.%.d.:.+.f.+.p :..           ",
"                          $ j g.........................%.h.j.k.3 3 3 3 3 $                     3 $.2.,.:.7.Z l.p :..           ",
"                          q w z.g x.x.x.x.x.x.x.x.x.x.x.7 c.l q                                 3 $.%...v.b.n.b p :..           ",
"                          q $.2.i p p p p p p p p p p p g +.l q                                 3 $...>.m.M.N.9.;.:..           ",
"                          q $.%.i p p p p p p p p p p p g A % $                                 3 $.%.l.B.s V.C.x.:..           ",
"                          q $.%.i p p p p p p p p p p p 7 < 0 X                                 3 $.2.Z.r.A.S.D.g :..           ",
"                          q $.%.i p p p p p p p p p p p 7 9 0 X                                 3 $.2.F.G.H.J.K.g :..           ",
"                  . . . . y L.P.6 7 7 7 7 7 7 I.g I.I.I.U.Y.T.X                                 3 $.2.Z.R.E.; W.g :..           ",
"            . $ { Q.+ + + y.!.~.^.^.^.^.^./.(.B ! ! ! P )._.{                                   3 $.%.`.'.X.].[.i :..           ",
"          $ {.I }.|.Y.Y.Y. X!..XXX: : : : : oXOX{ { { +X{ $                                     3 $...>.+.U ) ;.;.:..           ",
"          3 x 7.@X6 7 6 v #XL.3                                                                 3 $.%.$X#.^.:.A x.:..           ",
"          y u 5 i p p p x.%XL.q                                                                 3 $.2.,.:.&X:.*Xg :..           ",
"          y f 5 i p p p x.%XL.q                                                                 3 =X&.$X-X;XI A x.:..           ",
"          y f 5 i p p p x.%XL.q                                                                 q :Xm.>.>X,X<Xr -.:..           ",
"          y f 5 i p p p x.%XL.q                                                                 q :Xm.7 Z.I 1Xg 9.:..           ",
"          y f &Xg x.x.x.g %.` q                                                                 q :X6.%.=.f.2Xh.p :..           ",
"          $ 3X'.4X$X$X$X$X&.5X$ q y 6X6X6X6X6X6X6X6X6X6X6X6X6X6X6X6X6X6X6Xq                     q :X1.Z.*.q.7XW.g :..           ",
"            $ T.8X9X9X9X9X0X0.4.qX/ 4 wXwXwXwXwXwXwXwXwXwXwXwXwXwXwXwXeX4 rXE                   q :Xd.d.tXZ yXuX>.:..           ",
"              X q q q q q _ s.c g i i i i i i i i i i i i i i i i i i i g iX{.$                 q :Xm.-.A pXaXq.-.:..           ",
"                          q $.%.i p p p p p p p p p p p p p p p p p p p >.m.sXq                 q :Xm.P.* $Xs x.9.:..           ",
"                          q $.%.i p p p p p p p p p p p p p p p p p p p >.dX9Xq                 q :Xd.F.yXm x.p 9.:..           ",
"                          q $.%.i p p p p p p p p p p p p p p p p p p p >.&.9Xq                 q :X1.fX*.#Xi p 9.:..           ",
"                          q $.%.i p p p p p p p p p p p p p p p p p p p >.&.9Xq                 q :Xd.m.4.$X] 9.;.:..           ",
"                          q ` gXx.p p p p p p p p p p p p p p p p p p p >.&.hXq                 q j.1.M = R.@.h.>.*..           ",
"                          q :XjXi p p p p p p p p p p p p p p p p p p p >.kX{.$                 $ lX- >.zX6.xX7.cXvX$           ",
"                            { bXnXnXnXnXnXnXnXnXnXnXnXnXnXnXnXnXnXnXnXnX,XL mX                    . R nXMX@.@.MXL.NX            ",
"                              q y y y y y y y y y y y y y y y y y y y y y q                         q y y y y y q               ",
"                                                                                                                                ",
"                                                                                                                                ",
"                                                                                                                                ",
"                                                                                                                                ",
"                                                                                                                                ",
"                                                                                                                                ",
"                                                                                                                                ",
"                                                                                                                                ",
"                                                                                                                                ",
"                                                                                                                                ",
"                                                                                                                                ",
"                                                                                                                                "
};
