/* XPM */
static char *_ca722f5fa4a4171e95a699b0185bdcfqBVuRKy1OsTTptK7[] = {
/* columns rows colors chars-per-pixel */
"64 64 188 2 ",
"   c #2A2D38",
".  c #2D303B",
"X  c #2C2F3A",
"o  c #2B2E39",
"O  c #292C37",
"+  c #5B5D66",
"@  c #A4A5AB",
"#  c #AEAFB4",
"$  c #AEAFB3",
"%  c #ACADB1",
"&  c #7F8187",
"*  c #343742",
"=  c #292C38",
"-  c #30333E",
";  c #82848B",
":  c #ACAEB2",
">  c #ADAEB2",
",  c #ADAEB3",
"<  c #ACADB2",
"1  c #87898F",
"2  c #8F9096",
"3  c #A8A9AE",
"4  c #484A54",
"5  c #5C5E67",
"6  c #D1D1D4",
"7  c white",
"8  c #FEFEFE",
"9  c #B7B8BC",
"0  c #585B63",
"q  c #343741",
"w  c #BCBCC0",
"e  c #D5D6D8",
"r  c #6B6E75",
"t  c #BFC0C3",
"y  c gray98",
"u  c #5B5D65",
"i  c #282B36",
"p  c #B0B1B5",
"a  c #41444E",
"s  c #343641",
"d  c #B9B9BD",
"f  c #FEFEFF",
"g  c #D2D3D5",
"h  c #5F626A",
"j  c #323540",
"k  c #B9BABE",
"l  c #F6F6F7",
"z  c #5A5C65",
"x  c #D2D2D5",
"c  c #5F6169",
"v  c #32353F",
"b  c #BABBBE",
"n  c #5C5F67",
"m  c #AFB1B4",
"M  c #D1D2D4",
"N  c #5F616A",
"B  c #D2D2D4",
"V  c #5E6069",
"C  c #42444E",
"Z  c #D0D1D3",
"A  c #282B37",
"S  c #B9B9BE",
"D  c #5E6169",
"F  c #5D6068",
"G  c #2A2D39",
"H  c #BABABE",
"J  c #353842",
"K  c #93949A",
"L  c #5A5C64",
"P  c #2F323C",
"I  c #444750",
"U  c #D9D9DB",
"Y  c #494C55",
"T  c #CCCCCF",
"R  c #FDFDFE",
"E  c #D3D3D6",
"W  c #62646C",
"Q  c #2D303A",
"!  c #5C5E66",
"~  c #595B64",
"^  c #CBCCCF",
"/  c #C6C7C9",
"(  c #CCCDD0",
")  c #C5C6C9",
"_  c #50525C",
"`  c #292D38",
"'  c #C5C6C8",
"]  c #51535C",
"[  c #50535C",
"{  c #C4C6C8",
"}  c #595B63",
"|  c #31343F",
" . c #656870",
".. c #F9F9F9",
"X. c #AFB0B4",
"o. c #40434D",
"O. c #272A35",
"+. c #595C64",
"@. c #50525B",
"#. c #7B7D84",
"$. c #E4E5E6",
"%. c #C6C7CA",
"&. c #444650",
"*. c #454751",
"=. c #454851",
"-. c #2F323D",
";. c #C5C5C8",
":. c #2E313C",
">. c #30333D",
",. c #C7C8CB",
"<. c #DCDCDE",
"1. c #CBCBCE",
"2. c #CECED1",
"3. c #B1B1B6",
"4. c #B1B2B6",
"5. c #F7F7F8",
"6. c #72747B",
"7. c #71747B",
"8. c #484A53",
"9. c #C9C9CC",
"0. c #DDDDDF",
"q. c #51535D",
"w. c #C0C1C4",
"e. c gray97",
"r. c #6F7179",
"t. c #2A2C38",
"y. c #76787F",
"u. c #DBDCDE",
"i. c #DBDBDE",
"p. c #BFC0C4",
"a. c #30323D",
"s. c #777980",
"d. c #E3E4E5",
"f. c #797B82",
"g. c #E5E5E6",
"h. c #7B7D83",
"j. c #E5E5E7",
"k. c #7B7E84",
"l. c #E7E7E8",
"z. c #C9CACD",
"x. c #31343E",
"c. c #7E8086",
"v. c #E7E8E9",
"b. c #B8B9BD",
"n. c #EBEBEC",
"m. c #E8E9EA",
"M. c #EBECED",
"N. c #6F7178",
"B. c #32343F",
"V. c #7F8188",
"C. c #E9E9EA",
"Z. c #4E5059",
"A. c #5A5D65",
"S. c #595C65",
"D. c #6C6F76",
"F. c #D9DADC",
"G. c #C0C1C5",
"H. c #F8F8F8",
"J. c #797B81",
"K. c #83858B",
"L. c #ECECED",
"P. c #272A36",
"I. c #3E414A",
"U. c #CCCDCF",
"Y. c #333641",
"T. c #A8AAAE",
"R. c #DCDDDF",
"E. c #989A9F",
"W. c #DBDCDD",
"Q. c #DADADC",
"!. c #DADBDC",
"~. c #D3D3D5",
"^. c #51545D",
"/. c #3F424C",
"(. c #444751",
"). c #4B4E58",
"_. c #4B4D57",
"`. c #464952",
"'. c #474A54",
"]. c #474A53",
"[. c #464852",
"{. c #CDCED0",
"}. c #3C3F49",
"|. c #B9BABD",
" X c #E7E7E9",
".X c #E5E6E7",
"XX c #4C4F58",
"oX c #3E414B",
/* pixels */
"                                                                                                                                ",
"                                                                                                                                ",
"                                                                                                                                ",
"                                                                                                                                ",
"                                                                                                                                ",
"                                                                                                                                ",
"                                                                                                                                ",
"                                                                                                                                ",
"                                                                                                                                ",
"                                                                                                                                ",
"                                                                                                                                ",
"                                                                                                                                ",
"                                                                                                                                ",
"                                              . . . . . . . . . .         X . . . . . . . . . . . . . . . . . . . o             ",
"                                          O + @ # $ $ $ $ $ # % & * =   - ; : > > > > > , < 1 2 > $ $ $ $ $ $ $ 3 4 O           ",
"                                          5 6 7 7 7 7 7 7 7 8 9 0 .   O q w 7 7 7 7 7 7 7 e r t 7 7 7 7 7 7 7 7 y u i           ",
"                                      O 5 6 7 7 7 7 7 7 7 y p a i     O s d f 7 7 7 7 f g h j k 7 7 7 7 7 7 7 7 l z i           ",
"                                      + 6 7 7 7 7 7 7 7 y p a i       O s d f 7 7 7 7 x c   v b 7 7 7 7 7 7 7 7 l z i           ",
"                                    n 6 8 7 7 7 7 7 7 y m a O         O s d f 7 7 7 M N   O j b 7 7 7 7 7 7 7 7 l z i           ",
"                                O + 6 7 7 7 7 7 7 7 y p a i           O s d f 7 7 B V       j b 7 7 7 7 7 7 7 7 l z i           ",
"                                5 6 8 7 7 7 7 7 7 y p C O             O s d 7 7 Z V o       j b 7 7 7 7 7 7 7 7 l z i           ",
"                            O 5 6 7 7 7 7 7 7 7 y p a A               O s S 8 M D           j b 7 7 7 7 7 7 7 7 l z i           ",
"                            + 6 7 7 7 7 7 7 7 y p a i                 O q d Z F G           v H 7 7 7 7 7 7 7 7 l z i           ",
"                          n 6 8 7 7 7 7 7 7 y m a O                   O J K V             = j b 7 7 7 7 7 7 7 7 l L i           ",
"                      = + 6 7 7 7 7 7 7 7 y p a i                       P I o               z U 7 7 7 7 7 7 7 7 x Y O           ",
"                      5 6 8 7 7 7 7 7 7 y p a O                           O               L T R 7 7 7 7 7 7 7 E W Q             ",
"                  O ! 6 7 7 7 7 7 7 7 y p a i                                           ~ ^ 7 7 7 7 7 7 7 7 / z o               ",
"                  + 6 7 7 7 7 7 7 7 y p C A                                           ~ ( 8 7 7 7 7 7 7 7 ) _ O                 ",
"              ` 5 6 f 7 7 7 7 7 7 y m a O                                           L ^ 7 7 7 7 7 7 7 7 ' ]                     ",
"            ` + 6 7 7 7 7 7 7 7 y p a i                                           0 T 7 7 7 7 7 7 7 7 / [ O                     ",
"            5 6 8 7 7 7 7 7 7 y p a O                                           L ^ 8 7 7 7 7 7 7 7 { [                         ",
"        O ! 6 7 7 7 7 7 7 7 y p a i                                           } ^ 7 7 7 7 7 7 7 7 ) ] O                         ",
"      |  .6 7 7 7 7 7 7 7 ..X.o.O.O O O O O O O O O O O O O O O O           +.( 8 7 7 7 7 7 7 7 ' @.                            ",
"    o #.$.8 7 7 7 7 7 7 7 %.5 &.*.*.*.*.*.*.*.*.*.*.*.*.*.*.*.=.o.-.      +.^ 7 7 7 7 7 7 7 7 ;.[ `             :.X             ",
"    >.,.7 7 7 7 7 7 7 7 8 <.1.T T T T T T T T T T T T T T T T 2.3.4 O O j 4.8 7 7 7 7 7 7 7 5.6.            O -.7.8.O           ",
"    >.9.7 7 7 7 7 7 7 7 7 7 7 7 7 7 7 7 7 7 7 7 7 7 7 7 7 7 7 7 0.q.i O J w.7 7 7 7 7 7 7 7 e.r.          t.-.y.u.u i           ",
"    >.9.7 7 7 7 7 7 7 7 7 7 7 7 7 7 7 7 7 7 7 7 7 7 7 7 7 7 7 7 i.q.i O J p.7 7 7 7 7 7 7 7 e.r.        O a.s.d.5.z i           ",
"    >.9.7 7 7 7 7 7 7 7 7 7 7 7 7 7 7 7 7 7 7 7 7 7 7 7 7 7 7 7 i.q.i O J p.7 7 7 7 7 7 7 7 e.r.      O - f.g.7 l z i           ",
"    >.9.7 7 7 7 7 7 7 7 7 7 7 7 7 7 7 7 7 7 7 7 7 7 7 7 7 7 7 7 i.q.i O J p.7 7 7 7 7 7 7 7 e.r.      - h.j.7 7 l z i           ",
"    >.9.7 7 7 7 7 7 7 7 7 7 7 7 7 7 7 7 7 7 7 7 7 7 7 7 7 7 7 7 i.q.i O J p.7 7 7 7 7 7 7 7 e.r.  O - k.l.7 7 7 l z i           ",
"    - z.7 7 7 7 7 7 7 7 7 7 7 7 7 7 7 7 7 7 7 7 7 7 7 7 7 7 7 7 i.q.i O J p.7 7 7 7 7 7 7 7 e.r.  x.c.v.7 7 7 7 l z i           ",
"    -.b.n.m.m.m.m.m.m.m.m.m.m.m.m.m.m.m.m.m.M.y 7 7 7 7 7 7 7 7 i.q.i O J p.7 7 7 7 7 7 7 7 e.N.B.V.C.7 7 7 7 7 l z i           ",
"    o Z.A.S.S.S.S.S.S.S.S.S.S.S.S.S.S.S.S.~ D.F.7 7 7 7 7 7 7 7 i.q.i O J G.7 7 7 7 7 7 7 7 H.J.K.L.7 7 7 7 7 7 H.A.i           ",
"      O A A A A A A A A A A A A A A A A A P.I.U.7 7 7 7 7 7 7 7 i.q.i O Y.T.R.R.R.R.R.R.R.R.e E.) W.Q.Q.Q.Q.Q.!.~.^.i           ",
"                                          O /.( 7 7 7 7 7 7 7 7 i.q.i   X (.).).).).).).).)._.`.'.].].].].].].].[.-             ",
"                                          O /.( 7 7 7 7 7 7 7 7 i.q.i     O O O O O O O O O O O O O O O O O O O O               ",
"                                          O /.( 7 7 7 7 7 7 7 7 i.q.i                                                           ",
"                                          O /.( 7 7 7 7 7 7 7 7 i.q.i                                                           ",
"                                          O /.( 7 7 7 7 7 7 7 7 i.q.i                                                           ",
"                                          O /.( 7 7 7 7 7 7 7 7 i.q.i                                                           ",
"                                          O /.{.7 7 7 7 7 7 7 7 <.q.i                                                           ",
"                                          O }.|. X.X.X.X.X.X.Xl.) XXO                                                           ",
"                                            Q oX=.*.*.*.*.*.*.=.o.-.                                                            ",
"                                              O i i i i i i i i A                                                               ",
"                                                                                                                                ",
"                                                                                                                                ",
"                                                                                                                                ",
"                                                                                                                                ",
"                                                                                                                                ",
"                                                                                                                                ",
"                                                                                                                                ",
"                                                                                                                                ",
"                                                                                                                                ",
"                                                                                                                                "
};
