/* XPM */
static char *_129342e1dce40f08ea4290253b5277dTj8sD2RNjmLmOF19[] = {
/* columns rows colors chars-per-pixel */
"64 64 160 2 ",
"   c #D54E3E",
".  c #D5503F",
"X  c #E07E3D",
"o  c #D54F40",
"O  c #D55040",
"+  c #D75A45",
"@  c #D75748",
"#  c #D85B4C",
"$  c #D85F50",
"%  c #DB6740",
"&  c #D96254",
"*  c #DC6C50",
"=  c #DB6A5D",
"-  c #DD6F62",
";  c #DD7265",
":  c #DF7B6D",
">  c #DF7D71",
",  c #5CA55C",
"<  c #66A75A",
"1  c #76AA57",
"2  c #579E71",
"3  c #5AA363",
"4  c #64A964",
"5  c #65AA65",
"6  c #6AAD6B",
"7  c #7CB16C",
"8  c #73B273",
"9  c #7CB77C",
"0  c #7EB87F",
"q  c #EFBC3F",
"w  c #93AD4F",
"e  c #87AC54",
"r  c #A0B04F",
"t  c #B6B44C",
"y  c #80B679",
"u  c #E28940",
"i  c #E69940",
"p  c #C6B74A",
"a  c #D6B946",
"s  c #E9A440",
"d  c #EDB441",
"f  c #E3BB43",
"g  c #EFBD41",
"h  c #EFBF48",
"j  c #F0BD41",
"k  c #F0BF4B",
"l  c #E08378",
"z  c #F0C04E",
"x  c #F1C55B",
"c  c #F1C762",
"v  c #F2C967",
"b  c #F3CC6E",
"n  c #F3CD70",
"m  c #F4CF7A",
"M  c #F4D07D",
"N  c #539980",
"B  c #569698",
"V  c #60A280",
"C  c #7FB981",
"Z  c #5492A6",
"A  c #548EBB",
"S  c #5089C8",
"D  c #5588DD",
"F  c #5486E6",
"G  c #5685ED",
"H  c #5987ED",
"J  c #5C8AEE",
"K  c #618DEE",
"L  c #6B94EF",
"P  c #6F98F0",
"I  c #739AF0",
"U  c #7EA2F1",
"Y  c #84BB84",
"T  c #88BD89",
"R  c #96BEBB",
"E  c #E38C82",
"W  c #E49086",
"Q  c #E5948A",
"!  c #E89E94",
"~  c #E9A39A",
"^  c #EAABA3",
"/  c #EBAFA8",
"(  c #ECB3AC",
")  c #EEBBB5",
"_  c #8EC18E",
"`  c #8FC191",
"'  c #94C494",
"]  c #99C799",
"[  c #A3CCA4",
"{  c #AAD0AC",
"}  c #B3D5B4",
"|  c #BAD9BB",
" . c #D7D396",
".. c #F4D380",
"X. c #F5D48C",
"o. c #F3CC9C",
"O. c #F3D895",
"+. c #F7DD9E",
"@. c #F7DFA6",
"#. c #EFC2BD",
"$. c #F8E1AC",
"%. c #F9E7BB",
"&. c #FBE8BF",
"*. c #82A5F2",
"=. c #8EAEF3",
"-. c #91AFF3",
";. c #91B0F3",
":. c #9DB8F5",
">. c #A1BBF5",
",. c #BFDCC0",
"<. c #B9D0E7",
"1. c #ABC3F6",
"2. c #B4C9F7",
"3. c #BACDF8",
"4. c #BFD1F8",
"5. c #C3DEC4",
"6. c #F1C6C1",
"7. c #F3CECA",
"8. c #F3D2CE",
"9. c #F7DDCA",
"0. c #F4D4D0",
"q. c #F5D9D6",
"w. c #F7DDDB",
"e. c #C9E1CA",
"r. c #CFE5D1",
"t. c #D1E6D1",
"y. c #DAEBDB",
"u. c #FAEBC6",
"i. c #E7ECD6",
"p. c #F7E1DF",
"a. c #FCF1D7",
"s. c #FCF2DC",
"d. c #C3D3F9",
"f. c #CCDAFA",
"g. c #D2DEFA",
"h. c #DEE7FB",
"j. c #E2EFE2",
"k. c #F8E5E3",
"l. c #F9E9E7",
"z. c #FAECEA",
"x. c #E4F0E5",
"c. c #ECF5EC",
"v. c #FCF5E3",
"b. c #FBF1EF",
"n. c #FEF9ED",
"m. c #E9EFFD",
"M. c #EDF2FD",
"N. c #F0F7F1",
"B. c #FCF5F4",
"V. c #F5F9F5",
"C. c #FEFBF4",
"Z. c #F2F6FE",
"A. c #F7F9FE",
"S. c #FDF9F8",
"D. c #FEFBFA",
"F. c #F9FBFE",
"G. c #FAFBFF",
"H. c #FEFDFD",
"J. c #FDFEFF",
"K. c white",
/* pixels */
"K.K.K.K.K.K.K.K.K.K.K.K.K.K.K.K.K.K.K.K.K.K.K.K.K.K.K.K.K.K.K.K.K.K.K.K.K.K.K.K.K.K.K.K.K.K.K.K.K.K.K.K.K.K.K.K.K.K.K.K.K.K.K.K.",
"K.K.K.K.K.K.K.K.K.K.K.K.K.K.K.K.K.K.K.K.K.K.K.K.K.K.K.K.K.K.K.K.K.K.K.K.K.K.K.K.K.K.K.K.K.K.K.K.K.K.K.K.K.K.K.K.K.K.K.K.K.K.K.K.",
"K.K.K.K.K.K.K.K.K.K.K.K.K.K.K.K.K.K.K.K.K.K.K.K.K.K.K.K.K.K.K.K.K.K.K.K.K.K.K.K.K.K.K.K.K.K.K.K.K.K.K.K.K.K.K.K.K.K.K.K.K.K.K.K.",
"K.K.K.K.K.K.K.K.K.K.K.K.K.K.K.K.K.K.K.K.K.K.K.K.K.K.K.K.S.b.l.k.k.k.z.B.S.K.K.K.K.K.K.K.K.K.K.K.K.K.K.K.K.K.K.K.K.K.K.K.K.K.K.K.",
"K.K.K.K.K.K.K.K.K.K.K.K.K.K.K.K.K.K.K.K.K.K.K.K.B.q.) ~ l > - = = = ; > E ^ 6.w.B.K.K.K.K.K.K.K.K.K.K.K.K.K.K.K.K.K.K.K.K.K.K.K.",
"K.K.K.K.K.K.K.K.K.K.K.K.K.K.K.K.K.K.K.K.K.D.q.^ > & @           .   o       @ = E ( k.K.K.K.K.K.K.K.K.K.K.K.K.K.K.K.K.K.K.K.K.K.",
"K.K.K.K.K.K.K.K.K.K.K.K.K.K.K.K.K.K.K.C.7.E &       O o O O   O O O O O O O       @ = ~ w.K.K.K.K.K.K.K.K.K.K.K.K.K.K.K.K.K.K.K.",
"K.K.K.K.K.K.K.K.K.K.K.K.K.K.K.K.K.S.q.Q &     O   o O O O O O O O O o O O O O o O O   O = ^ z.K.K.K.K.K.K.K.K.K.K.K.K.K.K.K.K.K.",
"K.K.K.K.K.K.K.K.K.K.K.K.K.K.K.K.B.( =     O . O O . O o O O O O O O O O . O O O O O . O   O l 8.K.K.K.K.K.K.K.K.K.K.K.K.K.K.K.K.",
"K.K.K.K.K.K.K.K.K.K.K.K.K.K.K.k.E @   o O O O O O O O O O O . O O O O O O O O o O O o O O   o = ) B.K.K.K.K.K.K.K.K.K.K.K.K.K.K.",
"K.K.K.K.K.K.K.K.K.K.K.K.K.K.q.:     . O O O O O O O O O O O O O O O O O O O O O O . O O O O     @ ( S.K.K.K.K.K.K.K.K.K.K.K.K.K.",
"K.K.K.K.K.K.K.K.K.K.K.K.K.8.;   O O O O O O O O O o O . O O O   O O O O O O O O O O O O O O o   # ( S.K.K.K.K.K.K.K.K.K.K.K.K.K.",
"K.K.K.K.K.K.K.K.K.K.K.K.q.;   o O O O O o O O O O O O O . O O     O   O . . O O o O O O O O . $ ( S.K.K.K.K.K.K.K.K.K.K.K.K.K.K.",
"K.K.K.K.K.K.K.K.K.K.K.k.:   O o . O o O O O O O O . O                     . O O O O O O O   @ ( S.K.K.K.K.K.K.K.K.K.K.K.K.K.K.K.",
"K.K.K.K.K.K.K.K.K.K.B.E   O o O O O O O O O O O O     @ = l Q ~ ~ ! E > & @   . O O O O   @ ( B.K.K.K.K.K.K.K.K.K.K.K.K.K.K.K.K.",
"K.K.K.K.K.K.K.K.K.K.( @ o O O O O o O . O O O .   & W #.w.B.D.K.J.K.S.B.w.( > @   O     $ ( S.K.K.K.K.K.K.K.K.K.K.K.K.K.K.K.K.K.",
"K.K.K.K.K.K.K.K.K.q.-   o O O O o O . O O o   @ E 8.B.K.K.K.K.K.K.K.K.K.K.K.z.) ;     @ ( B.K.K.K.K.K.K.K.K.K.K.K.K.K.K.K.K.K.K.",
"K.K.K.K.K.K.K.K.B.Q   o O O O O O . O O O   = ( B.K.K.K.K.K.K.K.K.K.K.K.K.K.K.K.p.E & / D.K.K.K.K.K.K.K.K.K.K.K.K.K.K.K.K.K.K.K.",
"K.K.K.K.K.K.K.K.9.* o O O O o O O O O o   ; 7.D.K.K.K.K.K.K.K.K.K.K.K.K.K.K.K.K.K.b.q.B.K.K.K.K.K.K.K.K.K.K.K.K.K.K.K.K.K.K.K.K.",
"K.K.K.K.K.K.K.C.X.s % O O O O O O O O   - 0.K.K.K.K.K.K.K.K.K.K.K.K.K.K.K.K.K.K.K.K.K.K.K.K.K.K.K.K.K.K.K.K.K.K.K.K.K.K.K.K.K.K.",
"K.K.K.K.K.K.K.a.z q d X .   . . O     & 6.K.K.K.K.K.K.K.K.K.K.K.K.K.K.K.K.K.K.K.K.K.K.K.K.K.K.K.K.K.K.K.K.K.K.K.K.K.K.K.K.K.K.K.",
"K.K.K.K.K.K.K.@.z q g d u + . . .   @ ~ D.K.K.K.K.K.K.K.K.K.K.K.K.K.K.K.K.K.K.K.K.K.K.K.K.K.K.K.K.K.K.K.K.K.K.K.K.K.K.K.K.K.K.K.",
"K.K.K.K.K.K.C.m q q q z g i . . O   > l.K.K.K.K.K.K.K.K.K.K.K.K.K.K.K.K.K.K.K.K.K.K.K.K.K.K.K.K.K.K.K.K.K.K.K.K.K.K.K.K.K.K.K.K.",
"K.K.K.K.K.K.a.x q q q g g g q %   @ ) K.K.K.K.K.K.K.K.K.K.K.K.K.K.K.K.K.K.K.K.K.K.K.K.K.K.K.K.K.K.K.K.K.K.K.K.K.K.K.K.K.K.K.K.K.",
"K.K.K.K.K.K.%.h q g g g g g z q X : l.K.K.K.K.K.K.K.K.K.K.K.K.K.K.K.K.K.J.K.K.K.K.K.K.K.K.G.K.K.K.K.K.K.K.K.K.K.K.K.K.K.K.K.K.K.",
"K.K.K.K.K.K.+.g g g g g g g q q g o.D.K.K.K.K.K.K.K.K.K.K.K.K.G.d.:.>.:.:.:.>.:.>.>.:.>.>.>.>.>.:.>.:.>.:.:.:.>.1.M.K.K.K.K.K.K.",
"K.K.K.K.K.C.M g g g g g g g g q k u.K.K.K.K.K.K.K.K.K.K.K.K.K.A.-.G G G G G G G G G G G G G G G G G G G G G G G J f.K.K.K.K.K.K.",
"K.K.K.K.K.n.n q j g g g g j g q x v.K.K.K.K.K.K.K.K.K.K.K.K.K.A.;.G G G G G G G G G G G G G G G G G G G G G G G H d.K.K.K.K.K.K.",
"K.K.K.K.K.v.v q g g g j g g g q b n.K.K.K.K.K.K.K.K.K.K.K.K.K.A.=.G G G G G G G G G G G G G G G G G G G G G G G G 2.K.K.K.K.K.K.",
"K.K.K.K.K.v.c q g g g g g g g q m C.K.K.K.K.K.K.K.K.K.K.K.K.K.A.-.G H G G G G H G H G G G H G G G G H G G G G G G 1.K.K.K.K.K.K.",
"K.K.K.K.K.s.c q g g q g g g g q M C.K.K.K.K.K.K.K.K.K.K.K.K.K.A.;.G G G H G G G G G G G G G G G G G G G G G G G G 1.K.K.K.K.K.K.",
"K.K.K.K.K.v.c q g g g g g g g q m C.K.K.K.K.K.K.K.K.K.K.K.K.K.A.=.G G G G G G G G G G H G G G G H G G G G G G G G 1.K.K.K.K.K.K.",
"K.K.K.K.K.n.v q g g g g g g g q b n.K.K.K.K.K.K.K.K.K.K.K.K.K.A.=.G G G G G G G G G G G G G G G G G G G G H G G G 1.K.K.K.K.K.K.",
"K.K.K.K.K.n.n g g g g g g g g g x s.K.K.K.K.K.K.K.K.K.K.K.K.K.A.=.G G G G G G G G G G G G G G G G G G G G G G G G 2.K.K.K.K.K.K.",
"K.K.K.K.K.C.M g j g g g g g g g h &.K.K.K.K.K.K.K.K.K.K.K.K.K.A.=.G G G G G G G G G G G G G G G G G G G G G G G H 4.K.K.K.K.K.K.",
"K.K.K.K.K.K.+.q g g g g g g g j f  .H.K.K.K.K.K.K.K.K.K.K.K.K.G.2.=.=.=.*.=.=.=.=.=.=.=.=.=.L G G G G G G G G G K f.K.K.K.K.K.K.",
"K.K.K.K.K.K.%.h g g g g g g g a w 9 j.K.K.K.K.K.K.K.K.K.K.K.K.K.K.A.A.A.A.G.A.K.G.G.A.G.J.Z.;.G G G G G G G G G L h.K.K.K.K.K.K.",
"K.K.K.K.K.K.s.x q g g g g g p e , , | K.K.K.K.K.K.K.K.K.K.K.K.K.K.K.K.K.K.K.K.K.K.K.K.K.K.M.I G G G H G G G G G U M.K.K.K.K.K.K.",
"K.K.K.K.K.K.C.M g g g j g t 1 , , , 9 j.K.K.K.K.K.K.K.K.K.K.K.K.K.K.K.K.K.K.K.K.K.K.K.K.K.4.J G G G G G G G G G :.G.K.K.K.K.K.K.",
"K.K.K.K.K.K.K.$.h g j f r < , , , , , [ D.K.K.K.K.K.K.K.K.K.K.K.K.K.K.K.K.K.K.K.K.K.K.K.M.*.G G G G G G H G G H 3.K.K.K.K.K.K.K.",
"K.K.K.K.K.K.K.s.c g a e , , , , , , , 4 5.K.K.K.K.K.K.K.K.K.K.K.K.K.K.K.K.K.K.K.K.K.K.K.2.H G G G H G G G G G P m.K.K.K.K.K.K.K.",
"K.K.K.K.K.K.K.D.O.p 1 , , , , , , , , , 8 t.K.K.K.K.K.K.K.K.K.K.K.K.K.K.K.K.K.K.K.K.K.f.J G G G G G G G G G G ;.Z.K.K.K.K.K.K.K.",
"K.K.K.K.K.K.K.K.i.7 , , , , , , , , , , , 8 5.B.K.K.K.K.K.K.K.K.K.K.K.K.K.K.K.K.K.K.f.L G G G G G G G G G G J d.K.K.K.K.K.K.K.K.",
"K.K.K.K.K.K.K.K.V.[ , , , , , , , , , , , , 6 { c.K.K.K.K.K.K.K.K.K.K.K.K.K.K.K.N.<.L G G G G G G G G G G G *.M.K.K.K.K.K.K.K.K.",
"K.K.K.K.K.K.K.K.K.x.9 , , , , , , , , , , , , , Y 5.N.K.K.K.K.K.K.K.K.K.K.K.V.r.' V A G G G G G G G G G G H 3.K.K.K.K.K.K.K.K.K.",
"K.K.K.K.K.K.K.K.K.K.,.4 , , , , , , 3 , , , , , , 4 Y } y.c.V.V.S.K.V.c.y.| ' 6 , , 2 Z F G G G H G G G G =.Z.K.K.K.K.K.K.K.K.K.",
"K.K.K.K.K.K.K.K.K.K.V.[ , , , , , , , , , , , , , , , , 6 C ' ] ] ` _ 8 6 , , , , , , , B D G G G H G G L f.K.K.K.K.K.K.K.K.K.K.",
"K.K.K.K.K.K.K.K.K.K.K.c.' , , , , , , , , , , , , , , , , , , , , , , , , , , , , , , , , N S G G G G J 2.K.K.K.K.K.K.K.K.K.K.K.",
"K.K.K.K.K.K.K.K.K.K.K.K.x.T , , , , , , , , , , , , , , , , , , , , , , 3 , , , , , , , , , 2 A F G H :.Z.K.K.K.K.K.K.K.K.K.K.K.",
"K.K.K.K.K.K.K.K.K.K.K.K.K.i.T , , , , , , , , , , , , , , , , , , , , , , , , , , , , , , , , 3 Z D -.M.K.K.K.K.K.K.K.K.K.K.K.K.",
"K.K.K.K.K.K.K.K.K.K.K.K.K.K.j.` , , , , , , , < , , , , , , , , , , , , , , , , , , , , , , , , 3 R m.K.K.K.K.K.K.K.K.K.K.K.K.K.",
"K.K.K.K.K.K.K.K.K.K.K.K.K.K.K.c.[ 5 , , , , 3 , , , , , , , , , , , , , , , , , , , , , , , , 4 { c.K.K.K.K.K.K.K.K.K.K.K.K.K.K.",
"K.K.K.K.K.K.K.K.K.K.K.K.K.K.K.K.V.5.9 , , , , , , , , , , , , , , , , , , , , , , , , , , , 9 5.K.K.K.K.K.K.K.K.K.K.K.K.K.K.K.K.",
"K.K.K.K.K.K.K.K.K.K.K.K.K.K.K.K.K.K.x.{ 8 , , , 3 , , , , , , , , , , , , , , , , , , , 8 [ x.K.K.K.K.K.K.K.K.K.K.K.K.K.K.K.K.K.",
"K.K.K.K.K.K.K.K.K.K.K.K.K.K.K.K.K.K.K.K.y.[ 9 4 , , , , , , , , , , < 3 , , , , , < 8 [ y.V.K.K.K.K.K.K.K.K.K.K.K.K.K.K.K.K.K.K.",
"K.K.K.K.K.K.K.K.K.K.K.K.K.K.K.K.K.K.K.K.K.K.j.5.] 9 5 , , , , , , , , , , , 6 8 ' | y.K.K.K.K.K.K.K.K.K.K.K.K.K.K.K.K.K.K.K.K.K.",
"K.K.K.K.K.K.K.K.K.K.K.K.K.K.K.K.K.K.K.K.K.K.K.K.K.j.r.| [ ' Y Y 9 T T ] [ | r.j.B.K.K.K.K.K.K.K.K.K.K.K.K.K.K.K.K.K.K.K.K.K.K.K.",
"K.K.K.K.K.K.K.K.K.K.K.K.K.K.K.K.K.K.K.K.K.K.K.K.K.K.K.K.H.V.V.c.c.N.V.V.H.K.K.K.K.K.K.K.K.K.K.K.K.K.K.K.K.K.K.K.K.K.K.K.K.K.K.K.",
"K.K.K.K.K.K.K.K.K.K.K.K.K.K.K.K.K.K.K.K.K.K.K.K.K.K.K.K.K.K.K.K.K.K.K.K.K.K.K.K.K.K.K.K.K.K.K.K.K.K.K.K.K.K.K.K.K.K.K.K.K.K.K.K.",
"K.K.K.K.K.K.K.K.K.K.K.K.K.K.K.K.K.K.K.K.K.K.K.K.K.K.K.K.K.K.K.K.K.K.K.K.K.K.K.K.K.K.K.K.K.K.K.K.K.K.K.K.K.K.K.K.K.K.K.K.K.K.K.K.",
"K.K.K.K.K.K.K.K.K.K.K.K.K.K.K.K.K.K.K.K.K.K.K.K.K.K.K.K.K.K.K.K.K.K.K.K.K.K.K.K.K.K.K.K.K.K.K.K.K.K.K.K.K.K.K.K.K.K.K.K.K.K.K.K.",
"K.K.K.K.K.K.K.K.K.K.K.K.K.K.K.K.K.K.K.K.K.K.K.K.K.K.K.K.K.K.K.K.K.K.K.K.K.K.K.K.K.K.K.K.K.K.K.K.K.K.K.K.K.K.K.K.K.K.K.K.K.K.K.K.",
"K.K.K.K.K.K.K.K.K.K.K.K.K.K.K.K.K.K.K.K.K.K.K.K.K.K.K.K.K.K.K.K.K.K.K.K.K.K.K.K.K.K.K.K.K.K.K.K.K.K.K.K.K.K.K.K.K.K.K.K.K.K.K.K.",
"K.K.K.K.K.K.K.K.K.K.K.K.K.K.K.K.K.K.K.K.K.K.K.K.K.K.K.K.K.K.K.K.K.K.K.K.K.K.K.K.K.K.K.K.K.K.K.K.K.K.K.K.K.K.K.K.K.K.K.K.K.K.K.K."
};
