/* XPM */
static char *_2d70f300a56422e80b4528e075250b3TddUzHWU8w1UpSZi[] = {
/* columns rows colors chars-per-pixel */
"64 64 67 1 ",
"  c #222324",
". c #2B2324",
"X c #322425",
"o c #3B2425",
"O c #432425",
"+ c #4B2525",
"@ c #532525",
"# c #5B2526",
"$ c #642626",
"% c #6D2626",
"& c #742627",
"* c #7C2627",
"= c #842727",
"- c #8A2727",
"; c #932727",
": c #992728",
"> c #9C2828",
", c #A22828",
"< c #AD2828",
"1 c #B42929",
"2 c #BD2929",
"3 c #C12727",
"4 c #C22929",
"5 c #C53333",
"6 c #C73A3A",
"7 c #C83F3F",
"8 c #CA4444",
"9 c #CC4C4C",
"0 c #CE5455",
"q c #D15E5E",
"w c #D26464",
"e c #D56D6D",
"r c #D77474",
"t c #D97C7D",
"y c #DE8C8C",
"u c #DF8E8E",
"i c #E19696",
"p c #E39D9D",
"a c #E5A6A6",
"s c #E6AAAA",
"d c #E7ACAC",
"f c #E8AEAE",
"g c #E9B2B2",
"h c #E9B4B4",
"j c #EAB9B9",
"k c #EBBABA",
"l c #ECBDBD",
"z c #ECBFBF",
"x c #EDC1C1",
"c c #EEC5C5",
"v c #F0CCCC",
"b c #F1CFCF",
"n c #F2D3D3",
"m c #F2D5D5",
"M c #F3D7D7",
"N c #F3D8D8",
"B c #F4DCDC",
"V c #F6E2E2",
"C c #F7E4E4",
"Z c #F8E7E7",
"A c #F8E9E9",
"S c #F9EEEE",
"D c #FBF2F2",
"F c #FBF5F5",
"G c #FCF6F6",
"H c #FDF9F9",
"J c #FEFDFD",
/* pixels */
"                                                                ",
"                                                                ",
"                                                                ",
"                                                                ",
"                                                                ",
"                                                                ",
"                                                                ",
"                                                                ",
"                                                                ",
"                              ....                              ",
"                         o#&->,<,>-&#o                          ",
"                      .#-<344444444421-#.        .              ",
"                    .$,24444444444444443,$.                     ",
"                   +;244444444444444444442:+                    ",
"                  $1444444444444434444444441$.                  ",
"                .*244443444444244444444444442*.                 ",
"               .=24444444444444444444444444444=.                ",
"               &3444444444444444444444444444442&                ",
"              #144444444444444444444444434444442$               ",
"             o<444444443444444444244444444444444<O              ",
"            .=44444333344442444444334444444443444-.             ",
"            +144445wrr94444444440rrq44444444444441+             ",
"            -444437bJHy344444444sJJj44444244444444-.            ",
"           O1444447mJJy344444444dJJz444444444444441O            ",
"           &4444447nJJi344444444dJJz444444444444444&            ",
"          .;3444437nJJy343334444fJJz444444444444444:.           ",
"          o<4444437nJJu358084444dJJz448985344444444<o           ",
"          +24444447nJJuwzZDBf044dJJx8pNSCxe444444442+           ",
"          $24444437nJJcVJJJJJb74dJJmcJJJJJAw34434442$           ",
"          %44444447nJJJZfamJJHt4dJJJFxpjGJJf44444444&           ",
"          &44444447nJJAe440VJJs4dJJJi535fJJm84444444*           ",
"          &44444437nJJh4445xJJg4fJJV9344yJJV93444444*           ",
"          &44444337nJJi4444jJJh5dJJb6344tJJC02444444&           ",
"          $24344437nJJu4444hJJh4fJJc5443rHJC93444444$           ",
"          @24444438nJJu3444jJJh4dJJz4443rHJC93334442#           ",
"          O14444448mJJy4444jJJh4dJJx4443rJJZ93444441O           ",
"          .>4444447nJJi3444kJJh5fJHz5444rHJC9344444,X           ",
"           *4444437nJJy4444jJJh4dJJz4444rHJC9344444*            ",
"           +2444437nJJu4444kJJh5dJJx4443rHJC9344432@            ",
"           .>443437vGDy4444gHFd4aHFh5443rSFB934444>X            ",
"            $244444qww834449ww949ww044446wwq544442$             ",
"            X;44444333334443333443334444333334444>X             ",
"             @14444444444444444444344344443344442#              ",
"              &444444444444444444444444444444444*               ",
"              .-4444444444444444444444444443444;.               ",
"               o>44444444443444444444444444444>o                ",
"                o>444444444434444443424444444>O                 ",
"                 o-2444444444444444444444442-o                  ",
"                  .&13444444444444444442441%X                   ",
"                    O-1444444444444444442-O                     ",
"                      +-<4444444444444<-+.                      ",
"                        o#=><12222<>=#o                         ",
"                            oOOOOOX.                            ",
"                                                                ",
"                                                                ",
"                                                                ",
"                                                                ",
"                                                                ",
"                                                                ",
"                                                                ",
"                                                                ",
"                                                                ",
"             .                                                  ",
"                                                                "
};
